<?xml version="1.0" standalone="no"?><!DOCTYPE svg PUBLIC "-//W3C//DTD SVG 1.1//EN" "http://www.w3.org/Graphics/SVG/1.1/DTD/svg11.dtd"><svg t="1504451779978" class="icon" style="" viewBox="0 0 1024 1024" version="1.1" xmlns="http://www.w3.org/2000/svg" p-id="8468" xmlns:xlink="http://www.w3.org/1999/xlink" width="48" height="48"><defs><style type="text/css"></style></defs><path d="M742.4675 515.672204l-7.738327-146.045938c0 0-47.419292-67.19177-248.735684-3.931123 0 0 63.1327-157.839306-137.938879-126.401407-201.327475 31.569876-528.925387 477.582025-221.108013 615.520904 307.952374 138.183693 734.059059 35.625924 730.127936-232.769403C857.074532 622.04423 880.654215 515.672204 742.4675 515.672204M428.049226 857.977068C271.354399 885.494926 130.120106 826.794058 112.494532 726.763008c-17.494604-99.903102 95.215375-203.229566 251.661358-230.740372 156.950723-27.638754 298.053037 31.441928 315.423723 130.968239C697.202165 727.018904 584.496217 830.469285 428.049226 857.977068" p-id="8469" fill="#eaebec"></path><path d="M395.991737 541.262785c-211.72752 10.133068-186.114776 193.334259-186.114776 193.334259 9.764336 59.077659 82.913238 92.677574 219.835587 78.733272C566.762844 799.630828 607.833101 530.993709 395.991737 541.262785M365.712422 732.047154c-6.213027 25.73767-28.77618 42.599586-49.825115 37.531038-21.294756-5.075601-33.344019-30.425398-26.999014-56.163067 6.205975-25.73767 28.78021-42.474661 49.818062-37.531038C359.886261 681.084613 371.925449 706.445492 365.712422 732.047154M426.819113 684.390101c-13.688406 0-24.845057-11.281576-24.845057-24.969983 0-13.819377 11.157658-25.104983 24.845057-25.104983 13.819377 0 24.856139 11.285606 24.856139 25.104983C451.675252 673.108525 440.638489 684.390101 426.819113 684.390101" p-id="8470" fill="#eaebec"></path><path d="M821.94428 448.165098c16.350125 5.456422 36.005738-12.170159 36.005738-12.170159 31.694802-211.087781-196.895643-162.407145-196.895643-162.407145l0 39.812942c199.04557-27.386888 146.689707 122.594203 146.689707 122.594203S805.719081 442.715728 821.94428 448.165098" p-id="8471" fill="#eaebec"></path><path d="M645.95955 134.791563l0 86.969286c361.068872-59.329525 266.366296 267.378796 266.366296 267.378796s-4.056048 14.70796 25.605692 26.501327c29.543867 11.918293 65.037813-26.501327 65.037813-26.501327C1060.276897 28.803381 645.95955 134.791563 645.95955 134.791563" p-id="8472" fill="#eaebec"></path></svg>